<svg preserveAspectRatio="xMinYMid" viewBox="0 0 64 64" xmlns="http://www.w3.org/2000/svg" fill-rule="evenodd" clip-rule="evenodd" stroke-linejoin="round" stroke-miterlimit="1.414"><circle cx="64" cy="64" r="60" fill="#f3f3f3" transform="translate(7.467 7.467) scale(.38333)"/><path d="M48.253 48.253l-16.292-16.1 16.292-16.406C52.43 19.887 55 25.637 55 32v.074c-.021 6.334-2.585 12.055-6.747 16.179z" fill="#2ecc71"/><path d="M32 9c9.228 0 17.195 5.447 20.856 13.3L32 32V9z" fill="#ffba59"/><path d="M32 32L15.746 48.253l-.016-.003A22.929 22.929 0 019 32C9 19.306 19.306 9 32 9v23z" fill="#f56762"/><circle cx="64" cy="64" r="60" fill="#fff" transform="translate(14.109 14.147) scale(.27895)"/><path d="M40.931 22.263l-6.248 6.249a4.368 4.368 0 00-2.683-.92c-2.415 0-4.408 1.993-4.408 4.408s1.993 4.408 4.408 4.408 4.408-1.993 4.408-4.408c0-.997-.345-1.955-.92-2.683l6.248-6.249a.556.556 0 000-.805.556.556 0 00-.805 0z" fill="#424a54" fill-rule="nonzero"/><path d="M32 35.258A3.256 3.256 0 0128.74 32 3.256 3.256 0 0132 28.742 3.256 3.256 0 0135.258 32 3.256 3.256 0 0132 35.258z" fill="#fdfdfd" fill-rule="nonzero"/></svg>